%TF.GenerationSoftware,KiCad,Pcbnew,9.0.7*%
%TF.CreationDate,2026-02-10T22:33:51+01:00*%
%TF.ProjectId,LinefollowerMK1,4c696e65-666f-46c6-9c6f-7765724d4b31,rev?*%
%TF.SameCoordinates,Original*%
%TF.FileFunction,Copper,L2,Bot*%
%TF.FilePolarity,Positive*%
%FSLAX46Y46*%
G04 Gerber Fmt 4.6, Leading zero omitted, Abs format (unit mm)*
G04 Created by KiCad (PCBNEW 9.0.7) date 2026-02-10 22:33:51*
%MOMM*%
%LPD*%
G01*
G04 APERTURE LIST*
G04 Aperture macros list*
%AMRoundRect*
0 Rectangle with rounded corners*
0 $1 Rounding radius*
0 $2 $3 $4 $5 $6 $7 $8 $9 X,Y pos of 4 corners*
0 Add a 4 corners polygon primitive as box body*
4,1,4,$2,$3,$4,$5,$6,$7,$8,$9,$2,$3,0*
0 Add four circle primitives for the rounded corners*
1,1,$1+$1,$2,$3*
1,1,$1+$1,$4,$5*
1,1,$1+$1,$6,$7*
1,1,$1+$1,$8,$9*
0 Add four rect primitives between the rounded corners*
20,1,$1+$1,$2,$3,$4,$5,0*
20,1,$1+$1,$4,$5,$6,$7,0*
20,1,$1+$1,$6,$7,$8,$9,0*
20,1,$1+$1,$8,$9,$2,$3,0*%
G04 Aperture macros list end*
%TA.AperFunction,ComponentPad*%
%ADD10O,1.600000X1.600000*%
%TD*%
%TA.AperFunction,ComponentPad*%
%ADD11C,1.400000*%
%TD*%
%TA.AperFunction,ComponentPad*%
%ADD12C,3.800000*%
%TD*%
%TA.AperFunction,ComponentPad*%
%ADD13C,5.700000*%
%TD*%
%TA.AperFunction,ComponentPad*%
%ADD14R,1.600000X1.600000*%
%TD*%
%TA.AperFunction,ComponentPad*%
%ADD15RoundRect,0.275000X0.275000X0.475000X-0.275000X0.475000X-0.275000X-0.475000X0.275000X-0.475000X0*%
%TD*%
%TA.AperFunction,ComponentPad*%
%ADD16O,1.100000X1.500000*%
%TD*%
%TA.AperFunction,ViaPad*%
%ADD17C,1.000000*%
%TD*%
%TA.AperFunction,ViaPad*%
%ADD18C,0.800000*%
%TD*%
%TA.AperFunction,Conductor*%
%ADD19C,0.500000*%
%TD*%
%TA.AperFunction,Conductor*%
%ADD20C,0.200000*%
%TD*%
G04 APERTURE END LIST*
D10*
%TO.P,,4,GND*%
%TO.N,GND*%
X166522400Y-104902000D03*
%TD*%
%TO.P,,12,D9*%
%TO.N,unconnected-(A1-D9-Pad12)*%
X166420800Y-125222000D03*
%TD*%
D11*
%TO.P,R6,1*%
%TO.N,+5V*%
X158749999Y-46355000D03*
%TO.P,R6,2*%
%TO.N,/Analog5*%
X158749999Y-41275001D03*
%TD*%
D12*
%TO.P,,1*%
%TO.N,N/C*%
X134772400Y-102387400D03*
%TD*%
D13*
%TO.P,,1*%
%TO.N,N/C*%
X177800000Y-78740000D03*
%TD*%
D11*
%TO.P,R5,1*%
%TO.N,+5V*%
X163829999Y-46227999D03*
%TO.P,R5,2*%
%TO.N,Net-(U3-A)*%
X163829999Y-41148000D03*
%TD*%
D14*
%TO.P,REF\u002A\u002A,1*%
%TO.N,Net-(J2-Pin_1)*%
X147319999Y-132080000D03*
D10*
%TO.P,REF\u002A\u002A,2*%
%TO.N,Net-(J2-Pin_2)*%
X147319999Y-134620000D03*
%TD*%
D12*
%TO.P,,1*%
%TO.N,N/C*%
X177800000Y-148717000D03*
%TD*%
D10*
%TO.P,,27,+5V*%
%TO.N,+5V*%
X188925200Y-104902000D03*
%TD*%
D11*
%TO.P,R9,1*%
%TO.N,+5V*%
X191846199Y-46291499D03*
%TO.P,R9,2*%
%TO.N,Net-(U5-A)*%
X191846199Y-41211500D03*
%TD*%
D13*
%TO.P,,1*%
%TO.N,N/C*%
X122809000Y-144602200D03*
%TD*%
D11*
%TO.P,R4,1*%
%TO.N,+5V*%
X150621998Y-39116000D03*
%TO.P,R4,2*%
%TO.N,/Analog6*%
X145541999Y-39116000D03*
%TD*%
%TO.P,R3,1*%
%TO.N,+5V*%
X150621998Y-34036000D03*
%TO.P,R3,2*%
%TO.N,Net-(U2-A)*%
X145541999Y-34036000D03*
%TD*%
D10*
%TO.P,,19,A0*%
%TO.N,unconnected-(A1-A0-Pad19)*%
X188950600Y-125145800D03*
%TD*%
D12*
%TO.P,,1*%
%TO.N,N/C*%
X150088600Y-66725800D03*
%TD*%
D13*
%TO.P,,1*%
%TO.N,N/C*%
X177800000Y-54686200D03*
%TD*%
%TO.P,,1*%
%TO.N,N/C*%
X232816400Y-144602200D03*
%TD*%
%TO.P,,1*%
%TO.N,N/C*%
X232816400Y-121615200D03*
%TD*%
D12*
%TO.P,,1*%
%TO.N,N/C*%
X205511400Y-66751200D03*
%TD*%
D11*
%TO.P,R2,1*%
%TO.N,+5V*%
X129830101Y-48477898D03*
%TO.P,R2,2*%
%TO.N,/Analog7*%
X126237999Y-52070000D03*
%TD*%
%TO.P,R13,1*%
%TO.N,+5V*%
X229311199Y-44958000D03*
%TO.P,R13,2*%
%TO.N,Net-(U7-A)*%
X232903301Y-48550102D03*
%TD*%
%TO.P,R11,1*%
%TO.N,+5V*%
X204977999Y-34036000D03*
%TO.P,R11,2*%
%TO.N,Net-(U6-A)*%
X210057999Y-34036000D03*
%TD*%
D14*
%TO.P,REF\u002A\u002A,1*%
%TO.N,+9V*%
X193293999Y-97282000D03*
D10*
%TO.P,REF\u002A\u002A,2*%
%TO.N,Earth*%
X193293999Y-99822000D03*
%TD*%
D14*
%TO.P,A1,1,D1/TX*%
%TO.N,unconnected-(A1-D1{slash}TX-Pad1)*%
X170190000Y-97282000D03*
D10*
%TO.P,A1,2,D0/RX*%
%TO.N,unconnected-(A1-D0{slash}RX-Pad2)*%
X170190000Y-99822000D03*
%TO.P,A1,3,~{RESET}*%
%TO.N,unconnected-(A1-~{RESET}-Pad3)*%
X170190000Y-102362000D03*
%TO.P,A1,4,GND*%
%TO.N,GND*%
X170190000Y-104902000D03*
%TO.P,A1,5,D2*%
%TO.N,unconnected-(A1-D2-Pad5)*%
X170190000Y-107442000D03*
%TO.P,A1,6,D3*%
%TO.N,unconnected-(A1-D3-Pad6)*%
X170190000Y-109982000D03*
%TO.P,A1,7,D4*%
%TO.N,unconnected-(A1-D4-Pad7)*%
X170190000Y-112522000D03*
%TO.P,A1,8,D5*%
%TO.N,unconnected-(A1-D5-Pad8)*%
X170190000Y-115062000D03*
%TO.P,A1,9,D6*%
%TO.N,Net-(A1-D6)*%
X170190000Y-117602000D03*
%TO.P,A1,10,D7*%
%TO.N,Net-(A1-D7)*%
X170190000Y-120142000D03*
%TO.P,A1,11,D8*%
%TO.N,unconnected-(A1-D8-Pad11)*%
X170190000Y-122682000D03*
%TO.P,A1,12,D9*%
%TO.N,unconnected-(A1-D9-Pad12)*%
X170190000Y-125222000D03*
%TO.P,A1,13,D10*%
%TO.N,Net-(A1-D10)*%
X170190000Y-127762000D03*
%TO.P,A1,14,D11*%
%TO.N,Net-(A1-D11)*%
X170190000Y-130302000D03*
%TO.P,A1,15,D12*%
%TO.N,unconnected-(A1-D12-Pad15)*%
X170190000Y-132842000D03*
%TO.P,A1,16,D13*%
%TO.N,unconnected-(A1-D13-Pad16)*%
X185430000Y-132842000D03*
%TO.P,A1,17,3V3*%
%TO.N,unconnected-(A1-3V3-Pad17)*%
X185430000Y-130302000D03*
%TO.P,A1,18,AREF*%
%TO.N,unconnected-(A1-AREF-Pad18)*%
X185430000Y-127762000D03*
%TO.P,A1,19,A0*%
%TO.N,unconnected-(A1-A0-Pad19)*%
X185430000Y-125222000D03*
%TO.P,A1,20,A1*%
%TO.N,/Analog1*%
X185430000Y-122682000D03*
%TO.P,A1,21,A2*%
%TO.N,/Analog2*%
X185430000Y-120142000D03*
%TO.P,A1,22,A3*%
%TO.N,/Analog3*%
X185430000Y-117602000D03*
%TO.P,A1,23,A4*%
%TO.N,/Analog4*%
X185430000Y-115062000D03*
%TO.P,A1,24,A5*%
%TO.N,/Analog5*%
X185430000Y-112522000D03*
%TO.P,A1,25,A6*%
%TO.N,/Analog6*%
X185430000Y-109982000D03*
%TO.P,A1,26,A7*%
%TO.N,/Analog7*%
X185430000Y-107442000D03*
%TO.P,A1,27,+5V*%
%TO.N,+5V*%
X185430000Y-104902000D03*
%TO.P,A1,28,~{RESET}*%
%TO.N,unconnected-(A1-~{RESET}-Pad28)*%
X185430000Y-102362000D03*
%TO.P,A1,29,GND*%
%TO.N,Earth*%
X185430000Y-99822000D03*
%TO.P,A1,30,VIN*%
%TO.N,+9V*%
X185430000Y-97282000D03*
%TD*%
D11*
%TO.P,R12,1*%
%TO.N,+5V*%
X204977999Y-39116000D03*
%TO.P,R12,2*%
%TO.N,/Analog2*%
X210057999Y-39116000D03*
%TD*%
%TO.P,R1,1*%
%TO.N,+5V*%
X126274101Y-44958000D03*
%TO.P,R1,2*%
%TO.N,Net-(U1-A)*%
X122681999Y-48550102D03*
%TD*%
D14*
%TO.P,J2,1,Pin_1*%
%TO.N,Net-(J2-Pin_1)*%
X186690000Y-73126600D03*
D10*
%TO.P,J2,2,Pin_2*%
%TO.N,Net-(J2-Pin_2)*%
X186690000Y-70586600D03*
%TO.P,J2,3,Pin_3*%
%TO.N,Net-(J2-Pin_3)*%
X186690000Y-68046600D03*
%TO.P,J2,4,Pin_4*%
%TO.N,Net-(J2-Pin_4)*%
X186690000Y-65506600D03*
%TO.P,J2,5,Pin_5*%
%TO.N,Earth*%
X186690000Y-62966600D03*
%TO.P,J2,6,Pin_6*%
%TO.N,+9V*%
X186690000Y-60426600D03*
%TO.P,J2,7,Pin_7*%
%TO.N,Net-(A1-D10)*%
X168910000Y-73126600D03*
%TO.P,J2,8,Pin_8*%
%TO.N,Net-(A1-D11)*%
X168910000Y-70586600D03*
%TO.P,J2,9,Pin_9*%
%TO.N,Net-(A1-D6)*%
X168910000Y-68046600D03*
%TO.P,J2,10,Pin_10*%
%TO.N,Net-(A1-D7)*%
X168910000Y-65506600D03*
%TO.P,J2,11,Pin_11*%
%TO.N,GND*%
X168910000Y-62966600D03*
%TO.P,J2,12,Pin_12*%
%TO.N,+5V*%
X168910000Y-60426600D03*
%TD*%
D13*
%TO.P,,1*%
%TO.N,N/C*%
X122809000Y-121615200D03*
%TD*%
D11*
%TO.P,R14,1*%
%TO.N,+5V*%
X225780599Y-48488600D03*
%TO.P,R14,2*%
%TO.N,/Analog1*%
X229372701Y-52080702D03*
%TD*%
D14*
%TO.P,REF\u002A\u002A,1*%
%TO.N,Net-(J2-Pin_3)*%
X208280000Y-134620000D03*
D10*
%TO.P,REF\u002A\u002A,2*%
%TO.N,Net-(J2-Pin_4)*%
X208280000Y-132080000D03*
%TD*%
D11*
%TO.P,R10,1*%
%TO.N,+5V*%
X196926199Y-46291499D03*
%TO.P,R10,2*%
%TO.N,/Analog3*%
X196926199Y-41211500D03*
%TD*%
%TO.P,R8,1*%
%TO.N,+5V*%
X175259999Y-45720000D03*
%TO.P,R8,2*%
%TO.N,/Analog4*%
X175259999Y-40640001D03*
%TD*%
%TO.P,R7,1*%
%TO.N,+5V*%
X180339999Y-45719999D03*
%TO.P,R7,2*%
%TO.N,Net-(U4-A)*%
X180339999Y-40640000D03*
%TD*%
D12*
%TO.P,,1*%
%TO.N,N/C*%
X220827600Y-102387400D03*
%TD*%
D15*
%TO.P,U5,1,A*%
%TO.N,Net-(U5-A)*%
X194077999Y-31546800D03*
D16*
%TO.P,U5,2,K*%
%TO.N,GND*%
X194077999Y-35546800D03*
%TO.P,U5,3*%
%TO.N,/Analog3*%
X192277999Y-35546800D03*
%TO.P,U5,4*%
%TO.N,GND*%
X192277999Y-31546800D03*
%TD*%
D15*
%TO.P,U3,1,A*%
%TO.N,Net-(U3-A)*%
X163360000Y-31528000D03*
D16*
%TO.P,U3,2,K*%
%TO.N,GND*%
X163360000Y-35528000D03*
%TO.P,U3,3*%
%TO.N,/Analog5*%
X161560000Y-35528000D03*
%TO.P,U3,4*%
%TO.N,GND*%
X161560000Y-31528000D03*
%TD*%
D15*
%TO.P,U2,1,A*%
%TO.N,Net-(U2-A)*%
X139191999Y-38100000D03*
D16*
%TO.P,U2,2,K*%
%TO.N,GND*%
X139191999Y-42100000D03*
%TO.P,U2,3*%
%TO.N,/Analog6*%
X137391999Y-42100000D03*
%TO.P,U2,4*%
%TO.N,GND*%
X137391999Y-38100000D03*
%TD*%
D15*
%TO.P,U6,1,A*%
%TO.N,Net-(U6-A)*%
X218207999Y-38100000D03*
D16*
%TO.P,U6,2,K*%
%TO.N,GND*%
X218207999Y-42100000D03*
%TO.P,U6,3*%
%TO.N,/Analog2*%
X216407999Y-42100000D03*
%TO.P,U6,4*%
%TO.N,GND*%
X216407999Y-38100000D03*
%TD*%
D15*
%TO.P,U1,1,A*%
%TO.N,Net-(U1-A)*%
X120395999Y-53365400D03*
D16*
%TO.P,U1,2,K*%
%TO.N,GND*%
X120395999Y-57365400D03*
%TO.P,U1,3*%
%TO.N,/Analog7*%
X118595999Y-57365400D03*
%TO.P,U1,4*%
%TO.N,GND*%
X118595999Y-53365400D03*
%TD*%
D15*
%TO.P,U7,1,A*%
%TO.N,Net-(U7-A)*%
X237007399Y-53365400D03*
D16*
%TO.P,U7,2,K*%
%TO.N,GND*%
X237007399Y-57365400D03*
%TO.P,U7,3*%
%TO.N,/Analog1*%
X235207399Y-57365400D03*
%TO.P,U7,4*%
%TO.N,GND*%
X235207399Y-53365400D03*
%TD*%
D15*
%TO.P,U4,1,A*%
%TO.N,Net-(U4-A)*%
X178710999Y-31528000D03*
D16*
%TO.P,U4,2,K*%
%TO.N,GND*%
X178710999Y-35528000D03*
%TO.P,U4,3*%
%TO.N,/Analog4*%
X176910999Y-35528000D03*
%TO.P,U4,4*%
%TO.N,GND*%
X176910999Y-31528000D03*
%TD*%
D17*
%TO.N,GND*%
X159181800Y-93116400D03*
D18*
%TO.N,/Analog5*%
X166877999Y-49022000D03*
%TO.N,/Analog7*%
X196595999Y-54102000D03*
X149047199Y-46939201D03*
%TO.N,/Analog6*%
X166877999Y-51308000D03*
X141477999Y-43151000D03*
%TO.N,/Analog3*%
X202183999Y-46609000D03*
%TO.N,/Analog4*%
X200913999Y-50292000D03*
%TD*%
D19*
%TO.N,GND*%
X194077999Y-35546800D02*
X194077999Y-33346800D01*
X213854799Y-35546800D02*
X216407999Y-38100000D01*
X178710999Y-35528000D02*
X188296799Y-35528000D01*
X139191999Y-42100000D02*
X139191999Y-39900000D01*
X133349999Y-44958000D02*
X131941999Y-43550000D01*
X156004000Y-37084000D02*
X145643600Y-37084000D01*
X131941999Y-43550000D02*
X125940897Y-49551102D01*
X159181800Y-67894199D02*
X164109399Y-62966600D01*
X163360000Y-35528000D02*
X163360000Y-33328000D01*
X145643600Y-37084000D02*
X144856200Y-37084000D01*
X194077999Y-35546800D02*
X213854799Y-35546800D01*
X194077999Y-33346800D02*
X192277999Y-31546800D01*
X237007399Y-57365400D02*
X237007399Y-55165400D01*
X139191999Y-39900000D02*
X137391999Y-38100000D01*
X125940897Y-49551102D02*
X124489698Y-49551102D01*
X163360000Y-33328000D02*
X161560000Y-31528000D01*
X172910999Y-35528000D02*
X176910999Y-31528000D01*
X218207999Y-42100000D02*
X223941999Y-42100000D01*
X120395999Y-55165400D02*
X118595999Y-53365400D01*
X139840200Y-42100000D02*
X139191999Y-42100000D01*
X137391999Y-38100000D02*
X131941999Y-43550000D01*
X223941999Y-42100000D02*
X235207399Y-53365400D01*
X178710999Y-33328000D02*
X176910999Y-31528000D01*
X237007399Y-55165400D02*
X235207399Y-53365400D01*
X218207999Y-39900000D02*
X216407999Y-38100000D01*
X156004000Y-54861201D02*
X155191201Y-54861201D01*
X145288000Y-44958000D02*
X133349999Y-44958000D01*
X164109399Y-62966600D02*
X168910000Y-62966600D01*
X120395999Y-57365400D02*
X120395999Y-55165400D01*
X124489698Y-49551102D02*
X123164600Y-50876200D01*
X159181800Y-93116400D02*
X159181800Y-67894199D01*
X161560000Y-31528000D02*
X156004000Y-37084000D01*
X163360000Y-35528000D02*
X172910999Y-35528000D01*
X121085199Y-50876200D02*
X118595999Y-53365400D01*
X188296799Y-35528000D02*
X192277999Y-31546800D01*
X218207999Y-42100000D02*
X218207999Y-39900000D01*
X144729200Y-37211000D02*
X139840200Y-42100000D01*
X164109399Y-62966600D02*
X156004000Y-54861201D01*
X178710999Y-35528000D02*
X178710999Y-33328000D01*
X144856200Y-37084000D02*
X144729200Y-37211000D01*
X155191201Y-54861201D02*
X145288000Y-44958000D01*
X123164600Y-50876200D02*
X121085199Y-50876200D01*
D20*
%TO.N,/Analog5*%
X158749999Y-41275001D02*
X161163000Y-41275001D01*
X162813999Y-49022000D02*
X166877999Y-49022000D01*
X161543999Y-47752000D02*
X162813999Y-49022000D01*
X161163000Y-41275001D02*
X161289999Y-41402000D01*
X161543999Y-41656000D02*
X161543999Y-47752000D01*
X161289999Y-41402000D02*
X161543999Y-41656000D01*
%TO.N,/Analog7*%
X173482000Y-52578000D02*
X175514000Y-50546000D01*
X159765999Y-52324000D02*
X160019999Y-52578000D01*
X175514000Y-50546000D02*
X193039999Y-50546000D01*
X193039999Y-50546000D02*
X196595999Y-54102000D01*
X160019999Y-52578000D02*
X173482000Y-52578000D01*
X149047199Y-46939201D02*
X154431999Y-52324000D01*
X154431999Y-52324000D02*
X159765999Y-52324000D01*
%TO.N,/Analog6*%
X150875999Y-45720000D02*
X148335999Y-43180000D01*
X151129999Y-45720000D02*
X150875999Y-45720000D01*
X156717999Y-51308000D02*
X151129999Y-45720000D01*
X148335999Y-43180000D02*
X141477999Y-43180000D01*
X156717999Y-51308000D02*
X166877999Y-51308000D01*
%TO.N,/Analog3*%
X202183999Y-46609000D02*
X202183999Y-44450000D01*
X202183999Y-44450000D02*
X198945499Y-41211500D01*
X198945499Y-41211500D02*
X196926199Y-41211500D01*
%TO.N,/Analog4*%
X199135999Y-48514000D02*
X200913999Y-50292000D01*
X178307999Y-48260000D02*
X198373999Y-48260000D01*
X175259999Y-40640001D02*
X177292000Y-40640001D01*
X198627999Y-48514000D02*
X199135999Y-48514000D01*
X177292000Y-40640001D02*
X177545999Y-40894000D01*
X177545999Y-40894000D02*
X177545999Y-47498000D01*
X198373999Y-48260000D02*
X198627999Y-48514000D01*
X177545999Y-47498000D02*
X178307999Y-48260000D01*
%TO.N,Net-(J2-Pin_3)*%
X197104000Y-133350000D02*
X198374000Y-134620000D01*
X186690000Y-68046600D02*
X188188600Y-68046600D01*
X197104000Y-76962000D02*
X197104000Y-133350000D01*
X188188600Y-68046600D02*
X197104000Y-76962000D01*
X198374000Y-134620000D02*
X208280000Y-134620000D01*
%TO.N,Net-(J2-Pin_1)*%
X186690000Y-73126600D02*
X186690000Y-76199999D01*
X169671999Y-86868000D02*
X149606000Y-106933999D01*
X149606000Y-129793999D02*
X147319999Y-132080000D01*
X149606000Y-106933999D02*
X149606000Y-129793999D01*
X176021999Y-86868000D02*
X169671999Y-86868000D01*
X186690000Y-76199999D02*
X176021999Y-86868000D01*
%TO.N,Net-(J2-Pin_4)*%
X200660000Y-132080000D02*
X208280000Y-132080000D01*
X197866000Y-75184000D02*
X197866000Y-129286000D01*
X197866000Y-129286000D02*
X200660000Y-132080000D01*
X186690000Y-65506600D02*
X188188600Y-65506600D01*
X188188600Y-65506600D02*
X197866000Y-75184000D01*
%TO.N,Net-(J2-Pin_2)*%
X176021999Y-89408000D02*
X169163999Y-89408000D01*
X169163999Y-89408000D02*
X150875999Y-107696000D01*
X189483999Y-71120000D02*
X189483999Y-75946000D01*
X186690000Y-70586600D02*
X188950599Y-70586600D01*
X150875999Y-131064000D02*
X147319999Y-134620000D01*
X189483999Y-75946000D02*
X176021999Y-89408000D01*
X188950599Y-70586600D02*
X189483999Y-71120000D01*
X150875999Y-107696000D02*
X150875999Y-131064000D01*
%TD*%
%TA.AperFunction,Conductor*%
%TO.N,GND*%
G36*
X194330862Y-34800795D02*
G01*
X194331503Y-34801490D01*
X194528667Y-35033425D01*
X194531415Y-35041948D01*
X194528438Y-35048843D01*
X194086684Y-35538179D01*
X194078596Y-35542024D01*
X194070159Y-35539024D01*
X194069314Y-35538179D01*
X193627559Y-35048843D01*
X193624559Y-35040406D01*
X193627329Y-35033427D01*
X193824495Y-34801490D01*
X193832464Y-34797406D01*
X193833409Y-34797368D01*
X194322589Y-34797368D01*
X194330862Y-34800795D01*
G37*
%TD.AperFunction*%
%TD*%
%TA.AperFunction,Conductor*%
%TO.N,GND*%
G36*
X179254290Y-35231965D02*
G01*
X179255131Y-35233795D01*
X179270311Y-35276083D01*
X179270999Y-35280036D01*
X179270999Y-35775963D01*
X179270311Y-35779916D01*
X179255131Y-35822204D01*
X179249111Y-35828833D01*
X179240166Y-35829263D01*
X179238336Y-35828422D01*
X178727886Y-35538171D01*
X178722388Y-35531102D01*
X178723498Y-35522217D01*
X178727886Y-35517829D01*
X179238337Y-35227576D01*
X179247221Y-35226467D01*
X179254290Y-35231965D01*
G37*
%TD.AperFunction*%
%TD*%
%TA.AperFunction,Conductor*%
%TO.N,GND*%
G36*
X139444862Y-41353995D02*
G01*
X139445503Y-41354690D01*
X139642667Y-41586625D01*
X139645415Y-41595148D01*
X139642438Y-41602043D01*
X139200684Y-42091379D01*
X139192596Y-42095224D01*
X139184159Y-42092224D01*
X139183314Y-42091379D01*
X138741559Y-41602043D01*
X138738559Y-41593606D01*
X138741329Y-41586627D01*
X138938495Y-41354690D01*
X138946464Y-41350606D01*
X138947409Y-41350568D01*
X139436589Y-41350568D01*
X139444862Y-41353995D01*
G37*
%TD.AperFunction*%
%TD*%
%TA.AperFunction,Conductor*%
%TO.N,GND*%
G36*
X163612863Y-34781995D02*
G01*
X163613504Y-34782690D01*
X163810668Y-35014625D01*
X163813416Y-35023148D01*
X163810439Y-35030043D01*
X163368685Y-35519379D01*
X163360597Y-35523224D01*
X163352160Y-35520224D01*
X163351315Y-35519379D01*
X162909560Y-35030043D01*
X162906560Y-35021606D01*
X162909330Y-35014627D01*
X163106496Y-34782690D01*
X163114465Y-34778606D01*
X163115410Y-34778568D01*
X163604590Y-34778568D01*
X163612863Y-34781995D01*
G37*
%TD.AperFunction*%
%TD*%
%TA.AperFunction,Conductor*%
%TO.N,GND*%
G36*
X194621290Y-35250765D02*
G01*
X194622131Y-35252595D01*
X194637311Y-35294883D01*
X194637999Y-35298836D01*
X194637999Y-35794763D01*
X194637311Y-35798716D01*
X194622131Y-35841004D01*
X194616111Y-35847633D01*
X194607166Y-35848063D01*
X194605336Y-35847222D01*
X194094886Y-35556971D01*
X194089388Y-35549902D01*
X194090498Y-35541017D01*
X194094886Y-35536629D01*
X194605337Y-35246376D01*
X194614221Y-35245267D01*
X194621290Y-35250765D01*
G37*
%TD.AperFunction*%
%TD*%
%TA.AperFunction,Conductor*%
%TO.N,GND*%
G36*
X237260262Y-56619395D02*
G01*
X237260903Y-56620090D01*
X237458067Y-56852025D01*
X237460815Y-56860548D01*
X237457838Y-56867443D01*
X237016084Y-57356779D01*
X237007996Y-57360624D01*
X236999559Y-57357624D01*
X236998714Y-57356779D01*
X236556959Y-56867443D01*
X236553959Y-56859006D01*
X236556729Y-56852027D01*
X236753895Y-56620090D01*
X236761864Y-56616006D01*
X236762809Y-56615968D01*
X237251989Y-56615968D01*
X237260262Y-56619395D01*
G37*
%TD.AperFunction*%
%TD*%
%TA.AperFunction,Conductor*%
%TO.N,GND*%
G36*
X218751290Y-41803965D02*
G01*
X218752131Y-41805795D01*
X218767311Y-41848083D01*
X218767999Y-41852036D01*
X218767999Y-42347963D01*
X218767311Y-42351916D01*
X218752131Y-42394204D01*
X218746111Y-42400833D01*
X218737166Y-42401263D01*
X218735336Y-42400422D01*
X218224886Y-42110171D01*
X218219388Y-42103102D01*
X218220498Y-42094217D01*
X218224886Y-42089829D01*
X218735337Y-41799576D01*
X218744221Y-41798467D01*
X218751290Y-41803965D01*
G37*
%TD.AperFunction*%
%TD*%
%TA.AperFunction,Conductor*%
%TO.N,GND*%
G36*
X139735290Y-41803965D02*
G01*
X139736131Y-41805795D01*
X139751311Y-41848083D01*
X139751999Y-41852036D01*
X139751999Y-42347963D01*
X139751311Y-42351916D01*
X139736131Y-42394204D01*
X139730111Y-42400833D01*
X139721166Y-42401263D01*
X139719336Y-42400422D01*
X139208886Y-42110171D01*
X139203388Y-42103102D01*
X139204498Y-42094217D01*
X139208886Y-42089829D01*
X139719337Y-41799576D01*
X139728221Y-41798467D01*
X139735290Y-41803965D01*
G37*
%TD.AperFunction*%
%TD*%
%TA.AperFunction,Conductor*%
%TO.N,GND*%
G36*
X168254555Y-62528636D02*
G01*
X168531870Y-62713654D01*
X168896411Y-62956867D01*
X168901392Y-62964309D01*
X168899651Y-62973093D01*
X168896411Y-62976333D01*
X168254566Y-63404556D01*
X168245782Y-63406297D01*
X168238340Y-63401316D01*
X168238334Y-63401307D01*
X168117333Y-63219545D01*
X168115372Y-63213061D01*
X168115372Y-62720138D01*
X168117333Y-62713654D01*
X168238335Y-62531891D01*
X168245771Y-62526905D01*
X168254555Y-62528636D01*
G37*
%TD.AperFunction*%
%TD*%
%TA.AperFunction,Conductor*%
%TO.N,GND*%
G36*
X120648862Y-56619395D02*
G01*
X120649503Y-56620090D01*
X120846667Y-56852025D01*
X120849415Y-56860548D01*
X120846438Y-56867443D01*
X120404684Y-57356779D01*
X120396596Y-57360624D01*
X120388159Y-57357624D01*
X120387314Y-57356779D01*
X119945559Y-56867443D01*
X119942559Y-56859006D01*
X119945329Y-56852027D01*
X120142495Y-56620090D01*
X120150464Y-56616006D01*
X120151409Y-56615968D01*
X120640589Y-56615968D01*
X120648862Y-56619395D01*
G37*
%TD.AperFunction*%
%TD*%
%TA.AperFunction,Conductor*%
%TO.N,GND*%
G36*
X159434197Y-92619434D02*
G01*
X159435309Y-92620720D01*
X159590195Y-92828756D01*
X159592387Y-92837438D01*
X159587797Y-92845128D01*
X159587326Y-92845460D01*
X159188316Y-93113030D01*
X159179537Y-93114792D01*
X159175284Y-93113030D01*
X158776273Y-92845460D01*
X158771310Y-92838007D01*
X158773072Y-92829227D01*
X158773383Y-92828785D01*
X158928291Y-92620719D01*
X158935981Y-92616130D01*
X158937676Y-92616007D01*
X159425924Y-92616007D01*
X159434197Y-92619434D01*
G37*
%TD.AperFunction*%
%TD*%
%TA.AperFunction,Conductor*%
%TO.N,GND*%
G36*
X163903291Y-35231965D02*
G01*
X163904132Y-35233795D01*
X163919312Y-35276083D01*
X163920000Y-35280036D01*
X163920000Y-35775963D01*
X163919312Y-35779916D01*
X163904132Y-35822204D01*
X163898112Y-35828833D01*
X163889167Y-35829263D01*
X163887337Y-35828422D01*
X163376887Y-35538171D01*
X163371389Y-35531102D01*
X163372499Y-35522217D01*
X163376887Y-35517829D01*
X163887338Y-35227576D01*
X163896222Y-35226467D01*
X163903291Y-35231965D01*
G37*
%TD.AperFunction*%
%TD*%
%TA.AperFunction,Conductor*%
%TO.N,GND*%
G36*
X218460862Y-41353995D02*
G01*
X218461503Y-41354690D01*
X218658667Y-41586625D01*
X218661415Y-41595148D01*
X218658438Y-41602043D01*
X218216684Y-42091379D01*
X218208596Y-42095224D01*
X218200159Y-42092224D01*
X218199314Y-42091379D01*
X217757559Y-41602043D01*
X217754559Y-41593606D01*
X217757329Y-41586627D01*
X217954495Y-41354690D01*
X217962464Y-41350606D01*
X217963409Y-41350568D01*
X218452589Y-41350568D01*
X218460862Y-41353995D01*
G37*
%TD.AperFunction*%
%TD*%
%TA.AperFunction,Conductor*%
%TO.N,GND*%
G36*
X178963862Y-34781995D02*
G01*
X178964503Y-34782690D01*
X179161667Y-35014625D01*
X179164415Y-35023148D01*
X179161438Y-35030043D01*
X178719684Y-35519379D01*
X178711596Y-35523224D01*
X178703159Y-35520224D01*
X178702314Y-35519379D01*
X178260559Y-35030043D01*
X178257559Y-35021606D01*
X178260329Y-35014627D01*
X178457495Y-34782690D01*
X178465464Y-34778606D01*
X178466409Y-34778568D01*
X178955589Y-34778568D01*
X178963862Y-34781995D01*
G37*
%TD.AperFunction*%
%TD*%
%TA.AperFunction,Conductor*%
%TO.N,/Analog5*%
G36*
X159434641Y-41142311D02*
G01*
X159439424Y-41148950D01*
X159446135Y-41173487D01*
X159446549Y-41176574D01*
X159446549Y-41373427D01*
X159446135Y-41376514D01*
X159439424Y-41401051D01*
X159433935Y-41408127D01*
X159425859Y-41409440D01*
X158929728Y-41310897D01*
X158806775Y-41286476D01*
X158799329Y-41281504D01*
X158797579Y-41272722D01*
X158802552Y-41265275D01*
X158806775Y-41263525D01*
X159425859Y-41140561D01*
X159434641Y-41142311D01*
G37*
%TD.AperFunction*%
%TD*%
%TA.AperFunction,Conductor*%
%TO.N,/Analog5*%
G36*
X166555157Y-48806298D02*
G01*
X166555847Y-48806724D01*
X166864382Y-49012263D01*
X166869367Y-49019702D01*
X166867632Y-49028487D01*
X166864382Y-49031737D01*
X166555847Y-49237275D01*
X166547062Y-49239010D01*
X166539623Y-49234025D01*
X166539197Y-49233335D01*
X166477222Y-49124694D01*
X166475685Y-49118897D01*
X166475685Y-48925102D01*
X166477222Y-48919305D01*
X166539198Y-48810663D01*
X166546273Y-48805176D01*
X166555157Y-48806298D01*
G37*
%TD.AperFunction*%
%TD*%
%TA.AperFunction,Conductor*%
%TO.N,/Analog7*%
G36*
X196514751Y-53714116D02*
G01*
X196520239Y-53721192D01*
X196520426Y-53721981D01*
X196593255Y-54085486D01*
X196591520Y-54094271D01*
X196584081Y-54099256D01*
X196579485Y-54099256D01*
X196215980Y-54026427D01*
X196208541Y-54021442D01*
X196206806Y-54012657D01*
X196206993Y-54011868D01*
X196239992Y-53891220D01*
X196243001Y-53886039D01*
X196380038Y-53749002D01*
X196385219Y-53745993D01*
X196505868Y-53712994D01*
X196514751Y-53714116D01*
G37*
%TD.AperFunction*%
%TD*%
%TA.AperFunction,Conductor*%
%TO.N,/Analog7*%
G36*
X149427217Y-47014773D02*
G01*
X149434656Y-47019758D01*
X149436391Y-47028543D01*
X149436204Y-47029332D01*
X149403206Y-47149977D01*
X149400194Y-47155163D01*
X149263161Y-47292196D01*
X149257975Y-47295208D01*
X149137330Y-47328206D01*
X149128446Y-47327084D01*
X149122958Y-47320008D01*
X149122771Y-47319219D01*
X149117960Y-47295208D01*
X149049942Y-46955713D01*
X149051677Y-46946929D01*
X149059116Y-46941944D01*
X149063712Y-46941944D01*
X149427217Y-47014773D01*
G37*
%TD.AperFunction*%
%TD*%
%TA.AperFunction,Conductor*%
%TO.N,/Analog6*%
G36*
X141815426Y-42939606D02*
G01*
X141816314Y-42941194D01*
X141879238Y-43077668D01*
X141880313Y-43082567D01*
X141880313Y-43276109D01*
X141877982Y-43283117D01*
X141817222Y-43364356D01*
X141809523Y-43368928D01*
X141801366Y-43367085D01*
X141491615Y-43160737D01*
X141486630Y-43153298D01*
X141488365Y-43144513D01*
X141491615Y-43141263D01*
X141579724Y-43082567D01*
X141799202Y-42936355D01*
X141807987Y-42934621D01*
X141815426Y-42939606D01*
G37*
%TD.AperFunction*%
%TD*%
%TA.AperFunction,Conductor*%
%TO.N,/Analog6*%
G36*
X166555157Y-51092298D02*
G01*
X166555847Y-51092724D01*
X166864382Y-51298263D01*
X166869367Y-51305702D01*
X166867632Y-51314487D01*
X166864382Y-51317737D01*
X166555847Y-51523275D01*
X166547062Y-51525010D01*
X166539623Y-51520025D01*
X166539197Y-51519335D01*
X166477222Y-51410694D01*
X166475685Y-51404897D01*
X166475685Y-51211102D01*
X166477222Y-51205305D01*
X166539198Y-51096663D01*
X166546273Y-51091176D01*
X166555157Y-51092298D01*
G37*
%TD.AperFunction*%
%TD*%
%TA.AperFunction,Conductor*%
%TO.N,/Analog3*%
G36*
X202286693Y-46208223D02*
G01*
X202395334Y-46270198D01*
X202400822Y-46277274D01*
X202399700Y-46286158D01*
X202399274Y-46286848D01*
X202193736Y-46595383D01*
X202186297Y-46600368D01*
X202177512Y-46598633D01*
X202174262Y-46595383D01*
X201968723Y-46286848D01*
X201966988Y-46278063D01*
X201971973Y-46270624D01*
X201972650Y-46270205D01*
X202081305Y-46208223D01*
X202087102Y-46206686D01*
X202280896Y-46206686D01*
X202286693Y-46208223D01*
G37*
%TD.AperFunction*%
%TD*%
%TA.AperFunction,Conductor*%
%TO.N,/Analog3*%
G36*
X197610841Y-41078810D02*
G01*
X197615624Y-41085449D01*
X197622335Y-41109986D01*
X197622749Y-41113073D01*
X197622749Y-41309926D01*
X197622335Y-41313013D01*
X197615624Y-41337550D01*
X197610135Y-41344626D01*
X197602059Y-41345939D01*
X197105928Y-41247396D01*
X196982975Y-41222975D01*
X196975529Y-41218003D01*
X196973779Y-41209221D01*
X196978752Y-41201774D01*
X196982975Y-41200024D01*
X197602059Y-41077060D01*
X197610841Y-41078810D01*
G37*
%TD.AperFunction*%
%TD*%
%TA.AperFunction,Conductor*%
%TO.N,/Analog4*%
G36*
X200832751Y-49904116D02*
G01*
X200838239Y-49911192D01*
X200838426Y-49911981D01*
X200911255Y-50275486D01*
X200909520Y-50284271D01*
X200902081Y-50289256D01*
X200897485Y-50289256D01*
X200533980Y-50216427D01*
X200526541Y-50211442D01*
X200524806Y-50202657D01*
X200524993Y-50201868D01*
X200557992Y-50081220D01*
X200561001Y-50076039D01*
X200698038Y-49939002D01*
X200703219Y-49935993D01*
X200823868Y-49902994D01*
X200832751Y-49904116D01*
G37*
%TD.AperFunction*%
%TD*%
%TA.AperFunction,Conductor*%
%TO.N,/Analog4*%
G36*
X175944641Y-40507311D02*
G01*
X175949424Y-40513950D01*
X175956135Y-40538487D01*
X175956549Y-40541574D01*
X175956549Y-40738427D01*
X175956135Y-40741514D01*
X175949424Y-40766051D01*
X175943935Y-40773127D01*
X175935859Y-40774440D01*
X175439728Y-40675897D01*
X175316775Y-40651476D01*
X175309329Y-40646504D01*
X175307579Y-40637722D01*
X175312552Y-40630275D01*
X175316775Y-40628525D01*
X175935859Y-40505561D01*
X175944641Y-40507311D01*
G37*
%TD.AperFunction*%
%TD*%
%TA.AperFunction,Conductor*%
%TO.N,Net-(J2-Pin_3)*%
G36*
X187471707Y-67894601D02*
G01*
X187476680Y-67902048D01*
X187476722Y-67902274D01*
X187484446Y-67945579D01*
X187484628Y-67947633D01*
X187484628Y-68145566D01*
X187484446Y-68147620D01*
X187476722Y-68190925D01*
X187471896Y-68198468D01*
X187463150Y-68200389D01*
X187462932Y-68200348D01*
X186746766Y-68058075D01*
X186739320Y-68053103D01*
X186737571Y-68044320D01*
X186742544Y-68036873D01*
X186746767Y-68035124D01*
X187462926Y-67892852D01*
X187471707Y-67894601D01*
G37*
%TD.AperFunction*%
%TD*%
%TA.AperFunction,Conductor*%
%TO.N,Net-(J2-Pin_3)*%
G36*
X207499571Y-133839547D02*
G01*
X208272711Y-134611722D01*
X208276143Y-134619993D01*
X208272721Y-134628268D01*
X208272711Y-134628278D01*
X207499571Y-135400452D01*
X207491296Y-135403874D01*
X207483025Y-135400442D01*
X207479604Y-135392343D01*
X207470001Y-134720070D01*
X207470000Y-134719903D01*
X207470000Y-134520097D01*
X207470001Y-134519930D01*
X207479604Y-133847655D01*
X207483149Y-133839435D01*
X207491470Y-133836126D01*
X207499571Y-133839547D01*
G37*
%TD.AperFunction*%
%TD*%
%TA.AperFunction,Conductor*%
%TO.N,Net-(J2-Pin_1)*%
G36*
X186698268Y-73133878D02*
G01*
X186698278Y-73133888D01*
X187470452Y-73907028D01*
X187473874Y-73915303D01*
X187470442Y-73923574D01*
X187462341Y-73926995D01*
X186790070Y-73936599D01*
X186789903Y-73936600D01*
X186590097Y-73936600D01*
X186589930Y-73936599D01*
X185917658Y-73926995D01*
X185909435Y-73923450D01*
X185906126Y-73915129D01*
X185909546Y-73907028D01*
X186681722Y-73133887D01*
X186689993Y-73130456D01*
X186698268Y-73133878D01*
G37*
%TD.AperFunction*%
%TD*%
%TA.AperFunction,Conductor*%
%TO.N,Net-(J2-Pin_1)*%
G36*
X148059521Y-131205424D02*
G01*
X148060144Y-131206003D01*
X148193995Y-131339854D01*
X148197422Y-131348127D01*
X148197391Y-131348977D01*
X148121174Y-132395228D01*
X148117155Y-132403230D01*
X148108655Y-132406047D01*
X148105039Y-132405192D01*
X147323784Y-132082562D01*
X147317446Y-132076238D01*
X146994805Y-131294957D01*
X146994814Y-131286004D01*
X147001153Y-131279679D01*
X147004767Y-131278824D01*
X148051023Y-131202607D01*
X148059521Y-131205424D01*
G37*
%TD.AperFunction*%
%TD*%
%TA.AperFunction,Conductor*%
%TO.N,Net-(J2-Pin_4)*%
G36*
X207507004Y-131926238D02*
G01*
X208134657Y-132050927D01*
X208223232Y-132068524D01*
X208230679Y-132073497D01*
X208232428Y-132082280D01*
X208227455Y-132089727D01*
X208223232Y-132091476D01*
X207507075Y-132233747D01*
X207498292Y-132231998D01*
X207493319Y-132224551D01*
X207493277Y-132224325D01*
X207485554Y-132181020D01*
X207485372Y-132178966D01*
X207485372Y-131981033D01*
X207485554Y-131978979D01*
X207493277Y-131935674D01*
X207498103Y-131928131D01*
X207506849Y-131926210D01*
X207507004Y-131926238D01*
G37*
%TD.AperFunction*%
%TD*%
%TA.AperFunction,Conductor*%
%TO.N,Net-(J2-Pin_4)*%
G36*
X187471707Y-65354601D02*
G01*
X187476680Y-65362048D01*
X187476722Y-65362274D01*
X187484446Y-65405579D01*
X187484628Y-65407633D01*
X187484628Y-65605566D01*
X187484446Y-65607620D01*
X187476722Y-65650925D01*
X187471896Y-65658468D01*
X187463150Y-65660389D01*
X187462932Y-65660348D01*
X186746766Y-65518075D01*
X186739320Y-65513103D01*
X186737571Y-65504320D01*
X186742544Y-65496873D01*
X186746767Y-65495124D01*
X187462926Y-65352852D01*
X187471707Y-65354601D01*
G37*
%TD.AperFunction*%
%TD*%
%TA.AperFunction,Conductor*%
%TO.N,Net-(J2-Pin_2)*%
G36*
X187471707Y-70434601D02*
G01*
X187476680Y-70442048D01*
X187476722Y-70442274D01*
X187484446Y-70485579D01*
X187484628Y-70487633D01*
X187484628Y-70685566D01*
X187484446Y-70687620D01*
X187476722Y-70730925D01*
X187471896Y-70738468D01*
X187463150Y-70740389D01*
X187462932Y-70740348D01*
X186746766Y-70598075D01*
X186739320Y-70593103D01*
X186737571Y-70584320D01*
X186742544Y-70576873D01*
X186746767Y-70575124D01*
X187462926Y-70432852D01*
X187471707Y-70434601D01*
G37*
%TD.AperFunction*%
%TD*%
%TA.AperFunction,Conductor*%
%TO.N,Net-(J2-Pin_2)*%
G36*
X147774053Y-133961519D02*
G01*
X147774242Y-133961649D01*
X147810326Y-133986810D01*
X147811907Y-133988134D01*
X147951864Y-134128091D01*
X147953188Y-134129672D01*
X147978349Y-134165756D01*
X147980270Y-134174502D01*
X147975444Y-134182045D01*
X147975255Y-134182175D01*
X147368255Y-134587973D01*
X147359472Y-134589722D01*
X147352025Y-134584749D01*
X147350276Y-134575966D01*
X147352023Y-134571746D01*
X147757824Y-133964741D01*
X147765270Y-133959770D01*
X147774053Y-133961519D01*
G37*
%TD.AperFunction*%
%TD*%
M02*
