M48
; DRILL file {KiCad 9.0.7} date 2026-02-10T22:33:54+0100
; FORMAT={-:-/ absolute / metric / decimal}
; #@! TF.CreationDate,2026-02-10T22:33:54+01:00
; #@! TF.GenerationSoftware,Kicad,Pcbnew,9.0.7
; #@! TF.FileFunction,Plated,1,2,PTH
FMAT,2
METRIC
; #@! TA.AperFunction,Plated,PTH,ViaDrill
T1C0.500
; #@! TA.AperFunction,Plated,PTH,ComponentDrill
T2C0.700
; #@! TA.AperFunction,Plated,PTH,ComponentDrill
T3C1.000
; #@! TA.AperFunction,Plated,PTH,ComponentDrill
T4C2.200
; #@! TA.AperFunction,Plated,PTH,ComponentDrill
T5C3.200
%
G90
G05
T1
X141.478Y-43.151
X149.047Y-46.939
X159.182Y-93.116
X166.878Y-49.022
X166.878Y-51.308
X196.596Y-54.102
X200.914Y-50.292
X202.184Y-46.609
T2
X118.596Y-53.365
X118.596Y-57.365
X120.396Y-53.365
X120.396Y-57.365
X122.682Y-48.55
X126.238Y-52.07
X126.274Y-44.958
X129.83Y-48.478
X137.392Y-38.1
X137.392Y-42.1
X139.192Y-38.1
X139.192Y-42.1
X145.542Y-34.036
X145.542Y-39.116
X150.622Y-34.036
X150.622Y-39.116
X158.75Y-41.275
X158.75Y-46.355
X161.56Y-31.528
X161.56Y-35.528
X163.36Y-31.528
X163.36Y-35.528
X163.83Y-41.148
X163.83Y-46.228
X175.26Y-40.64
X175.26Y-45.72
X176.911Y-31.528
X176.911Y-35.528
X178.711Y-31.528
X178.711Y-35.528
X180.34Y-40.64
X180.34Y-45.72
X191.846Y-41.212
X191.846Y-46.291
X192.278Y-31.547
X192.278Y-35.547
X194.078Y-31.547
X194.078Y-35.547
X196.926Y-41.212
X196.926Y-46.291
X204.978Y-34.036
X204.978Y-39.116
X210.058Y-34.036
X210.058Y-39.116
X216.408Y-38.1
X216.408Y-42.1
X218.208Y-38.1
X218.208Y-42.1
X225.781Y-48.489
X229.311Y-44.958
X229.373Y-52.081
X232.903Y-48.55
X235.207Y-53.365
X235.207Y-57.365
X237.007Y-53.365
X237.007Y-57.365
T3
X147.32Y-132.08
X147.32Y-134.62
X166.421Y-125.222
X166.522Y-104.902
X168.91Y-60.427
X168.91Y-62.967
X168.91Y-65.507
X168.91Y-68.047
X168.91Y-70.587
X168.91Y-73.127
X170.19Y-97.282
X170.19Y-99.822
X170.19Y-102.362
X170.19Y-104.902
X170.19Y-107.442
X170.19Y-109.982
X170.19Y-112.522
X170.19Y-115.062
X170.19Y-117.602
X170.19Y-120.142
X170.19Y-122.682
X170.19Y-125.222
X170.19Y-127.762
X170.19Y-130.302
X170.19Y-132.842
X185.43Y-97.282
X185.43Y-99.822
X185.43Y-102.362
X185.43Y-104.902
X185.43Y-107.442
X185.43Y-109.982
X185.43Y-112.522
X185.43Y-115.062
X185.43Y-117.602
X185.43Y-120.142
X185.43Y-122.682
X185.43Y-125.222
X185.43Y-127.762
X185.43Y-130.302
X185.43Y-132.842
X186.69Y-60.427
X186.69Y-62.967
X186.69Y-65.507
X186.69Y-68.047
X186.69Y-70.587
X186.69Y-73.127
X188.925Y-104.902
X188.951Y-125.146
X193.294Y-97.282
X193.294Y-99.822
X208.28Y-132.08
X208.28Y-134.62
T4
X134.772Y-102.387
X150.089Y-66.726
X177.8Y-148.717
X205.511Y-66.751
X220.828Y-102.387
T5
X122.809Y-121.615
X122.809Y-144.602
X177.8Y-54.686
X177.8Y-78.74
X232.816Y-121.615
X232.816Y-144.602
M30
