%TF.GenerationSoftware,KiCad,Pcbnew,9.0.7*%
%TF.CreationDate,2026-02-10T22:33:51+01:00*%
%TF.ProjectId,LinefollowerMK1,4c696e65-666f-46c6-9c6f-7765724d4b31,rev?*%
%TF.SameCoordinates,Original*%
%TF.FileFunction,Soldermask,Top*%
%TF.FilePolarity,Negative*%
%FSLAX46Y46*%
G04 Gerber Fmt 4.6, Leading zero omitted, Abs format (unit mm)*
G04 Created by KiCad (PCBNEW 9.0.7) date 2026-02-10 22:33:51*
%MOMM*%
%LPD*%
G01*
G04 APERTURE LIST*
G04 Aperture macros list*
%AMRoundRect*
0 Rectangle with rounded corners*
0 $1 Rounding radius*
0 $2 $3 $4 $5 $6 $7 $8 $9 X,Y pos of 4 corners*
0 Add a 4 corners polygon primitive as box body*
4,1,4,$2,$3,$4,$5,$6,$7,$8,$9,$2,$3,0*
0 Add four circle primitives for the rounded corners*
1,1,$1+$1,$2,$3*
1,1,$1+$1,$4,$5*
1,1,$1+$1,$6,$7*
1,1,$1+$1,$8,$9*
0 Add four rect primitives between the rounded corners*
20,1,$1+$1,$2,$3,$4,$5,0*
20,1,$1+$1,$4,$5,$6,$7,0*
20,1,$1+$1,$6,$7,$8,$9,0*
20,1,$1+$1,$8,$9,$2,$3,0*%
G04 Aperture macros list end*
%ADD10O,1.600000X1.600000*%
%ADD11C,1.400000*%
%ADD12C,3.800000*%
%ADD13C,5.700000*%
%ADD14R,1.600000X1.600000*%
%ADD15RoundRect,0.275000X0.275000X0.475000X-0.275000X0.475000X-0.275000X-0.475000X0.275000X-0.475000X0*%
%ADD16O,1.100000X1.500000*%
G04 APERTURE END LIST*
D10*
%TO.C,*%
X166522400Y-104902000D03*
%TD*%
%TO.C,*%
X166420800Y-125222000D03*
%TD*%
D11*
%TO.C,R6*%
X158749999Y-46355000D03*
X158749999Y-41275001D03*
%TD*%
D12*
%TO.C,*%
X134772400Y-102387400D03*
%TD*%
D13*
%TO.C,*%
X177800000Y-78740000D03*
%TD*%
D11*
%TO.C,R5*%
X163829999Y-46227999D03*
X163829999Y-41148000D03*
%TD*%
D14*
%TO.C,REF\u002A\u002A*%
X147319999Y-132080000D03*
D10*
X147319999Y-134620000D03*
%TD*%
D12*
%TO.C,*%
X177800000Y-148717000D03*
%TD*%
D10*
%TO.C,*%
X188925200Y-104902000D03*
%TD*%
D11*
%TO.C,R9*%
X191846199Y-46291499D03*
X191846199Y-41211500D03*
%TD*%
D13*
%TO.C,*%
X122809000Y-144602200D03*
%TD*%
D11*
%TO.C,R4*%
X150621998Y-39116000D03*
X145541999Y-39116000D03*
%TD*%
%TO.C,R3*%
X150621998Y-34036000D03*
X145541999Y-34036000D03*
%TD*%
D10*
%TO.C,*%
X188950600Y-125145800D03*
%TD*%
D12*
%TO.C,*%
X150088600Y-66725800D03*
%TD*%
D13*
%TO.C,*%
X177800000Y-54686200D03*
%TD*%
%TO.C,*%
X232816400Y-144602200D03*
%TD*%
%TO.C,*%
X232816400Y-121615200D03*
%TD*%
D12*
%TO.C,*%
X205511400Y-66751200D03*
%TD*%
D11*
%TO.C,R2*%
X129830101Y-48477898D03*
X126237999Y-52070000D03*
%TD*%
%TO.C,R13*%
X229311199Y-44958000D03*
X232903301Y-48550102D03*
%TD*%
%TO.C,R11*%
X204977999Y-34036000D03*
X210057999Y-34036000D03*
%TD*%
D14*
%TO.C,REF\u002A\u002A*%
X193293999Y-97282000D03*
D10*
X193293999Y-99822000D03*
%TD*%
D14*
%TO.C,A1*%
X170190000Y-97282000D03*
D10*
X170190000Y-99822000D03*
X170190000Y-102362000D03*
X170190000Y-104902000D03*
X170190000Y-107442000D03*
X170190000Y-109982000D03*
X170190000Y-112522000D03*
X170190000Y-115062000D03*
X170190000Y-117602000D03*
X170190000Y-120142000D03*
X170190000Y-122682000D03*
X170190000Y-125222000D03*
X170190000Y-127762000D03*
X170190000Y-130302000D03*
X170190000Y-132842000D03*
X185430000Y-132842000D03*
X185430000Y-130302000D03*
X185430000Y-127762000D03*
X185430000Y-125222000D03*
X185430000Y-122682000D03*
X185430000Y-120142000D03*
X185430000Y-117602000D03*
X185430000Y-115062000D03*
X185430000Y-112522000D03*
X185430000Y-109982000D03*
X185430000Y-107442000D03*
X185430000Y-104902000D03*
X185430000Y-102362000D03*
X185430000Y-99822000D03*
X185430000Y-97282000D03*
%TD*%
D11*
%TO.C,R12*%
X204977999Y-39116000D03*
X210057999Y-39116000D03*
%TD*%
%TO.C,R1*%
X126274101Y-44958000D03*
X122681999Y-48550102D03*
%TD*%
D14*
%TO.C,J2*%
X186690000Y-73126600D03*
D10*
X186690000Y-70586600D03*
X186690000Y-68046600D03*
X186690000Y-65506600D03*
X186690000Y-62966600D03*
X186690000Y-60426600D03*
X168910000Y-73126600D03*
X168910000Y-70586600D03*
X168910000Y-68046600D03*
X168910000Y-65506600D03*
X168910000Y-62966600D03*
X168910000Y-60426600D03*
%TD*%
D13*
%TO.C,*%
X122809000Y-121615200D03*
%TD*%
D11*
%TO.C,R14*%
X225780599Y-48488600D03*
X229372701Y-52080702D03*
%TD*%
D14*
%TO.C,REF\u002A\u002A*%
X208280000Y-134620000D03*
D10*
X208280000Y-132080000D03*
%TD*%
D11*
%TO.C,R10*%
X196926199Y-46291499D03*
X196926199Y-41211500D03*
%TD*%
%TO.C,R8*%
X175259999Y-45720000D03*
X175259999Y-40640001D03*
%TD*%
%TO.C,R7*%
X180339999Y-45719999D03*
X180339999Y-40640000D03*
%TD*%
D12*
%TO.C,*%
X220827600Y-102387400D03*
%TD*%
D15*
%TO.C,U5*%
X194077999Y-31546800D03*
D16*
X194077999Y-35546800D03*
X192277999Y-35546800D03*
X192277999Y-31546800D03*
%TD*%
D15*
%TO.C,U3*%
X163360000Y-31528000D03*
D16*
X163360000Y-35528000D03*
X161560000Y-35528000D03*
X161560000Y-31528000D03*
%TD*%
D15*
%TO.C,U2*%
X139191999Y-38100000D03*
D16*
X139191999Y-42100000D03*
X137391999Y-42100000D03*
X137391999Y-38100000D03*
%TD*%
D15*
%TO.C,U6*%
X218207999Y-38100000D03*
D16*
X218207999Y-42100000D03*
X216407999Y-42100000D03*
X216407999Y-38100000D03*
%TD*%
D15*
%TO.C,U1*%
X120395999Y-53365400D03*
D16*
X120395999Y-57365400D03*
X118595999Y-57365400D03*
X118595999Y-53365400D03*
%TD*%
D15*
%TO.C,U7*%
X237007399Y-53365400D03*
D16*
X237007399Y-57365400D03*
X235207399Y-57365400D03*
X235207399Y-53365400D03*
%TD*%
D15*
%TO.C,U4*%
X178710999Y-31528000D03*
D16*
X178710999Y-35528000D03*
X176910999Y-35528000D03*
X176910999Y-31528000D03*
%TD*%
M02*
